<svg xmlns="http://www.w3.org/2000/svg"><symbol id="Logo" viewBox="0 0 120 40"><path d="M24.021 14.908v-.217c.053-.07.143-.06.205-.035.277.113.57.07.856.087.241.009.482-.043.732.07.116.052.303.06.463-.035.134-.087.313-.017.464-.035.054.035.054.078.045.13.419.208.874.104 1.293.14.205-.166.214-.4.312-.6a3.982 3.982 0 011.382-1.552c.17-.113.366-.165.59-.026.311.2.641.373.962.555.143.078.286.174.437.234a.793.793 0 01.455.469c.098.26.16.537.277.798.044.095.009.225.009.338.124.078.205.043.312-.043.16-.13.347-.226.535-.347h.455c.25-.33.606-.52 1.043-.703.24.009.535.009.812-.147.071-.035.17-.026.258-.026h1.169c.267-.235.588-.347.954-.347a74.06 74.06 0 002.408-.009c.24-.009.437.121.678.095.232-.026.49-.052.713.01.259.069.517.043.767.077.321.044.642.096.937.2.187.07.401.164.5.381.044.096.16.165.231.234v.477c-.42-.043-.838.096-1.249-.086-.026-.009-.062 0-.089 0-.588.07-1.16-.13-1.748-.087-.205.017-.374-.121-.588-.095-.188.017-.41.078-.59-.07-.035-.026-.115 0-.177 0-.33-.008-.67.035-.99-.087-.054-.017-.116 0-.161 0-.071.14-.036.235.071.313.027.008.054.026.08.026.206 0 .42.017.625 0 .24-.026.437.121.678.095.232-.026.49-.06.704.009.393.121.785.06 1.169.07.526.017 1.043.155 1.57.086.142-.017.213.19.374.06.258.452.08.911.151 1.336-.115.104-.222.2-.365.321-.098-.035-.196.121-.348.104-.57-.052-1.124-.208-1.677-.355-.071-.2-.32-.113-.428-.243-.107-.139-.356-.052-.428-.243-.348-.017-.562-.278-.847-.408a4.24 4.24 0 01-.785-.468.47.47 0 00-.464-.078v1.865c.018.017.063.052.09.078.749.164 1.507.052 2.238.138.705.087 1.4.044 2.105.07.16.008.285.121.455.095.16-.026.32-.008.481-.008l.143-.14v-2.011c.178.043.178.173.17.295.142.086.32.112.436.251v1.318c-.053.035-.115.096-.169.13v1.24l.178.174c0 .182-.044.39.01.581.133.434.053.876.08 1.31 0 .043-.01.086-.01.138h-.749c-.07.235-.285.408-.205.694h.91l.152.148c-.027.494.107 1.014-.241 1.517-.286.174-.642.044-.981.096-.054.035-.027.078-.027.121l3.264.39.384.373c-.054.018.027-.017-.01.026-.008.01-.017.027-.035.027-1.248.043-27.246.008-27.674-.035-.053-.191.312-.226.134-.469-.178-.026-.375-.173-.66-.069-.152.208-.5.295-.651.555H7.11c-.008-.017-.017-.026-.026-.043.054-.018.107-.035.16-.061-.008-.017-.026-.043-.035-.06.134 0 .259-.01.392 0 .268.017.518-.07.714-.2.25-.174.508-.252.794-.234.562.034 1.106-.087 1.623-.27.134-.042.294-.077.374-.242H9.654c-.098-.07-.045-.147-.063-.234.321-.174.651-.338.981-.512.072-.225-.142-.347-.25-.485a2.797 2.797 0 00-.419-.443c-.187-.156-.133-.416-.133-.633.17-.087.026-.277.125-.39.044.043.08.078.142.13-.107.425.223.65.49.902.027.017.09 0 .135 0v.173h.178c-.009.044.009.07.053.078.01 0 .027-.017.027-.026-.009-.043-.036-.06-.08-.052a.205.205 0 00-.178-.173c-.01-.052.026-.113-.027-.165-.098-.087-.205-.173-.286-.277-.125-.165-.312-.304-.151-.573.089-.147-.018-.39.107-.564-.063-.312.071-.615.107-.919.027-.26.018-.546.16-.798.027-.06.01-.138.01-.2.249-.38.641-.441 1.034-.502.357-.061.722-.13 1.097-.191.009-.06.009-.13.018-.234.294.043.561-.139.927-.078a.92.92 0 01-.116-.703h.75c.07.087.017.191.035.304.33.139.633-.122.963-.044v-.59c-.053-.077-.17.018-.232-.051-.026-.035-.062-.061-.098-.096v-.407c.321-.14.633-.113.946.017.124.538.124.538.035.841h.455c.116.078.036.182.098.278.348-.009.687-.174 1.053-.07.16.061.294.209.508.14v-2.03c-.071-.096-.17-.148-.294-.113-.018-.026-.036-.043-.045-.07-.045-.164.036-.312.125-.424.09-.113.134-.243.259-.356h.508v.416h3.3c.258-.008.5.165.749.078.107.087.196.165.116.33a7.895 7.895 0 01-.33.147c.053.295.223.573.25.868.026.32.142.624.116.954-.027.33-.01.659.017.988a8.306 8.306 0 00.74-1.717c.179-.017.42.026.598-.147.071-.07.196-.052.25-.018.187.122.392.078.588.078.17-.008.286.13.455.096.152-.026.321-.035.455.078.321-.043.616.13.946.095.223-.026.445-.017.668 0 .223.018.393-.164.625-.078v-.26h-1.302c-.036.017-.027.06-.027.13-.16.052-.33.018-.482.026-.071-.043-.053-.087-.053-.13-.018-.017-.045-.043-.063-.043-.66.017-1.302-.165-1.97-.07-.01-.13-.01-.234-.019-.33-.107-.025-.124-.112-.214-.112zm.714 4.596c0 .061.026.087.089.087 0 .061.026.087.089.087 0 .06.027.087.089.087v.217c.036.086.232.008.178.173.16.06.027.243.152.33.036.017.036.104.027.156-.036.121.107.19.098.303-.009.087-.063.208.08.295v-.78c.125 0 .072.095.09.156.08.208.008.468.24.641.25-.078.473.087.714.07.098-.009.151.07.223.095.24.096.463.226.695.338-.009.044.01.07.054.078.009 0 .027-.017.027-.026-.01-.043-.036-.06-.08-.052-.045-.182.142-.234.213-.338.01.009.018.017.036.017.508.321 1.133.408 1.623.755.036.026.116 0 .187 0-.08.217.223.243.197.434.116 0 .232.043.339-.044-.206-.112-.277-.373-.544-.381-.25-.33-.616-.512-.973-.694-.151-.078-.312-.147-.446-.217-.017-.078.01-.113.054-.13.107-.035.134.113.232.087.17-.052.142-.278.294-.347.098.009.205-.026.312.035v.373c.134.034.259.034.357.147.268.286.57.546.847.833.134.138.232.303.348.46-.41.199-.758.424-1.097.632l.464.451a9.7 9.7 0 001.525-.72c-.054-.225-.143-.425-.098-.65h-.58c-.187-.243-.187-.286-.009-.538h.544c.107-.156.107-.156.08-.347-.08.018-.169-.017-.25.061-.07.07-.195.026-.294.026-.196-.356-.196-.356-.187-.512.232-.2.553-.269.83-.33.686-.155 1.337-.433 2.015-.606.321-.087.642-.174.954-.278.366-.121.732-.208 1.07-.39v-1.232c.126-.043.072-.234.197-.251.17-.026.151-.182.24-.243.028-.425 0-.841.081-1.266.08-.434.018-.893.018-1.344 0-.026-.01-.061 0-.087.027-.044.098-.07.089-.139-.098-.251-.41-.373-.375-.728-.107.138-.07.242-.07.338 0 .884-.01 1.76 0 2.645a.643.643 0 01-.224.52c-.09.078-.187.14-.24.174v1.448c-.66.312-1.356.46-2.025.72-.33.13-.678.225-1.017.33-.642.19-1.284.381-1.9.641-.07-.112-.044-.217-.044-.312V18.29c0-.407-.259-.798-.624-.997-.08-.043-.17-.095-.25-.139-.277-.147-.526-.373-.946-.32l-.713.693a7.136 7.136 0 00-.883-.234c-.321-.07-.669-.017-.999-.017-.294.138-.562.312-.83.477-.249.156-.534.294-.775.468-.24.165-.482.32-.75.451-.017.009-.008.078-.017.13h.392c.107.156.33.104.41.269-.25.043-.472-.13-.722-.087-.535-.225-1.017-.009-1.49.2-.169.078-.311.19-.508.138-.294.27-.544.573-.633.972-.16-.373.054-.65.25-.928a.517.517 0 00-.357-.026c-.044.225-.143.425-.116.65.036.234-.089.46-.107.694-.018.208-.098.416 0 .763.107-.33.33-.156.464-.251 0-.182-.018-.356.009-.53.027-.216.41-.919.624-1.031.321-.174.571-.451.981-.503.714-.096.981-.122 1.552.173.116.06.25.147.401.095.01.078.036.113.099.104zm-11.505.347c-.134.01-.072.105-.09.174h-.142c-.393.711-.42 1.43-.098 2.168h.151c0 .286.018.312.268.347.017.07-.045.165.089.173.214.382.615.53 1.008.59.5.078 1.025.026 1.489-.243.08-.043.152-.138.268-.095.009.052-.027.113.062.182.214-.104.437-.234.669-.33.187-.077.383-.182.589-.19.258-.018.454-.13.66-.243.437-.252.874-.52 1.31-.78-.089-.087-.222.017-.33-.053v-.598h1.026v-.633c-.116.165-.027.312-.089.442-.214.139-.41.156-.945.078v-.572h.544c.17 0 .348-.009.517-.009 0-.147.009-.269 0-.381-.009-.096.062-.209-.08-.295v.373l-.143.138c-.277-.017-.58.061-.838-.121v-.494h1.052c0-.07.018-.113-.036-.157-.392-.052-.802.07-1.222-.121v2.524h-.874c-.142-.321-.303-.633-.374-.98.071-.044.107-.104.178-.139.25-.104.5-.225.74-.347.099-.052.224-.104.108-.277-.366.173-.723.346-1.097.529-.348-.564-.562-1.18-.937-1.692-.33-.268-.731-.268-1.079-.2-.473.105-.927.036-1.391.07-.09.009-.179 0-.268 0-.25.018-.49.096-.731.174-.205.07-.33.251-.517.347-.116.06-.125.2-.223.277-.304.26-.348.668-.562.98.062.304-.134.573-.09.876.01.044 0 .087-.026.104h-.393c-.25-.338-.5-.659-.74-.98.018-.295-.018-.58.08-.876.063-.19.08-.407.125-.607.045-.208 0-.433.09-.607s.053-.312.044-.494c-.071.07-.152.113-.152.147.045.208-.151.373-.098.573.036.13-.107.19-.098.312.018.13.036.269 0 .39a3.91 3.91 0 00-.16 1.431c.312.269.463.65.749.902h.642c.214-.009.437.017.651-.017 0-.156.009-.295 0-.417-.053-.477.116-.893.366-1.283.125-.2.25-.416.535-.442-.01.095-.134.147-.09.26-.07.026-.097.052-.097.113zm15.25-4.25c.09.122.179.122.268 0 .071-.017.17.044.178-.086.143-.087.188-.225.179-.382-.08-.104-.241-.173-.16-.372.142-.14.293-.295.454-.443.062-.06.062-.121.062-.19.143-.035.197-.122.179-.26h.178v-.174c.116.043.179-.078.294-.087.34.2.687.416 1.053.607.392.208.74.451.945.937.054-.33-.089-.52-.142-.737-.036-.174-.125-.295-.259-.356-.535-.251-1.017-.59-1.588-.798-.089.165-.338.208-.303.443h-.178v.173c-.143.035-.196.121-.179.26a.272.272 0 00-.231.087c-.107.121-.259.208-.33.338-.08.148-.223.234-.348.312-.107.07-.205.14-.295.217-.017.018-.026.044-.053.078.053.104-.045.234.053.347h.134c0 .06.027.096.09.087zm-8.303-.771c-.356-.19-.758-.043-1.132-.095v2.42h1.132V14.83zm16.687.729c0 .338.018.667-.009.997-.035.381.152.685.295 1.006.035.087.125.156.17.2h.4c.223-.07.33-.26.473-.374.063-.312-.17-.295-.339-.338v-1.43c.402-.087.41-.114.205-.564-.419.112-.874.164-1.195.502zm-14.26 5.559c.133.121.222.286.418.182.063-.27.107-.33.25-.321.232.009.205.19.25.338.116.009.223.043.33-.026.018-.052-.036-.121.062-.121.018.052.036.104.054.147.151.009.303.052.401-.104.09-.286-.09-.503-.187-.737-.045-.009-.098-.009-.116-.035-.24-.303-.562-.373-.928-.33-.071.01-.151 0-.196 0-.446.217-.785.486-.785 1.024.134-.017.188.139.312.104.027-.035.063-.06.134-.121zm-.884-6.245c.018.035.072.078.072.122 0 .555.142 1.093.098 1.656-.027.33-.01.668-.01.998.144.156.33.277.411.477.071-.018.152.034.214-.044v-1.596c0-.069.036-.173-.009-.208-.16-.165-.027-.364-.089-.529a1.179 1.179 0 01-.08-.52c-.152-.13-.152-.321-.223-.486-.125.018-.268-.06-.384.13zm18.675 6.453h2.935c.16-.13.285-.286.32-.503h-3.585a.85.85 0 00.33.503zM15.13 16.825c-.053.112-.017.225-.026.338-.01.13 0 .26 0 .39-.01.096.035.208-.09.373v-1.11c-.071.009-.115.009-.178.017v1.032h-.428v.148h3.62c.037-.052.037-.096-.008-.156h-2.025v-1.024h-.615c-.036.347.018.686-.098 1.015v-1.023h-.152zm23.527 6.842h1.106c.366 0 .74-.008 1.106 0 .366.018.696-.156 1.053-.086.035-.191.044-.347-.099-.425h-3.059l-.107.104v.407zm-1.293-.086c.054-.191.24-.338.223-.564-.018-.208.107-.399.098-.616-.009-.147-.125-.243-.107-.399a1.057 1.057 0 00-.16-.71c-.036-.053-.018-.14-.018-.105l-.482-.468a.517.517 0 00-.481.399c-.08.303-.188.607-.188.919 0 .303-.035.616.107.91-.196.07-.383-.017-.535.053v.399h.544c.125.069.152.234.312.164.036-.06.01-.095-.009-.156-.044-.156-.151-.295-.142-.46.009-.364-.036-.728.009-1.083.044-.33.062-.694.455-.911.116.121.294.182.25.399.115.078.106.2.088.312-.026.139.107.217.098.356-.017.511.054 1.032-.187 1.5.027.078.08.06.125.06zm-16.98-8.82v2.385h.606v-1.83c-.01-.39-.188-.547-.607-.555zm3.754 1.275h.107c.437.06.856.199 1.302.173.196.147.437.026.624.104.143.052.277.095.41.07.179-.035.295.086.455.095.473.017.937 0 1.365-.26.062-.035.08-.07.08-.14-.107-.06-.178-.042-.303.018-.276.139-.57.217-.892.208-.205-.008-.392-.086-.588-.086-.277.008-.527-.165-.812-.096-.178-.139-.437-.009-.57-.104-.206-.139-.42-.009-.625-.121-.17-.087-.428-.018-.66-.018-.437.616-.598 1.37-.99 2.065 0 .052-.045.173.045.268.115.009.205-.078.205-.138.053-.382.258-.703.365-1.067.116-.33.259-.65.482-.972zm-3.773 7.501c.366.087.66.165.91.321.223-.2.42-.381.544-.633h1.044c-.384-.19-.696-.303-.946-.512h-.392c-.17 0-.34.061-.464.156-.223.183-.42.4-.696.668zm15.563-2.298c.17-.2-.08-.364-.044-.555 0-.017-.036-.035-.045-.052-.08-.017-.16.026-.214-.035-.027-.07.027-.147-.044-.217-.322-.034-.625.096-.937.148-.312.06-.633.13-.936.217-.304.078-.625.104-.928.225-.285.113-.598.148-.927.226.062.026.089.043.107.043.205 0 .446.07.615-.017.196-.096.446.017.606-.156.402.026.776-.148 1.16-.208.392-.061.767-.183 1.168-.13.063.173-.027.355.054.502.124.01.25.01.365.01zm2.301.252h1.285c.187-.313.151-.434-.223-.755h-1.062l-.116.113v.537a.417.417 0 01.116.105zm-16.036.017c-.776-.06-1.507.286-2.318.269.089.156-.036.312.124.45.107-.095.214-.181.33-.285.259-.01.5.104.758.173.134-.13.304-.095.455-.078.143.009.259-.217.42-.043-.072.052-.116.121-.215.138-.071.009-.071.113.01.174.187-.07.383-.139.526-.191.098-.26.017-.434-.09-.607zm-.392-2.75c-.071-.225.107-.442.09-.684-.019-.243-.161-.434-.206-.634-.294-.156-.589-.086-.874-.095-.294-.009-.589 0-.883 0 .009.07.009.113.009.165h1.543l.125.121v1.076l-.107.104c-.49.026-.99-.026-1.48.034 0 .078 0 .122.044.148h1.507c.062-.078.143-.148.232-.234zm12.397.781c.187-.087.348-.104.42-.251-.063-.087-.18.017-.26-.078 0-.078.01-.183 0-.278-.07-.841.134-1.665.09-2.55.142.061.187-.043.267-.112 0-.104.045-.217-.062-.339-.143.13-.348.182-.455.313v3.295zm6.502 2.108c0 .026 0 .06.017.078.063.078.134.156.17.2h1.998c.124-.088.178-.192.098-.348h-1.008c-.09 0-.178 0-.259-.017-.437-.095-.535-.095-1.016.087zm-7.03-5.517l-.027-.078h-.812c-.383.104-.606.381-.874.633.018.13-.035.269.054.425.562-.338 1.115-.66 1.659-.98zm-3.336 1.119c.045-.183.018-.321-.17-.339-.097-.008-.15-.052-.222-.104-.277-.173-.562-.338-.847-.511a2 2 0 00-.143-.078c-.045.104-.196.13-.196.268.365.313.83.477 1.24.764h.338zm2.979 2.237v-2.211c.24-.122.24-.122.205-.382-.151.052-.294.104-.401.234v2.585c0 .017.036.034.053.052.054-.139.223-.026.304-.122-.01-.043.017-.086-.027-.121a1.043 1.043 0 01-.134-.035zm3.8 3.643c.089-.27-.072-.477-.081-.72-.009-.252.205-.468.071-.72-.053-.043-.089-.121-.187-.104-.027.026-.071.043-.09.078a1.79 1.79 0 00-.088 1.214c.027.096-.018.234.116.295.035.017.062.06.142.043.018 0 .063-.043.116-.086zm-18.766-8.473c-.071.372-.16.745-.124 1.127 0 .043.008.095-.01.13-.178.295-.044.598-.07.876.15.07.178-.052.258-.095.018-.26.027-.52.071-.78.072-.409.018-.834.018-1.25-.062-.009-.107-.009-.143-.009zm16.09 6.929c-.125.121-.197.269-.161.434.036.173-.179.346-.08.468.133.156 0 .338.107.468.08.122.187.122.33.07-.09-.165.178-.304.044-.486-.053-.009-.107.017-.143-.043v-.365c.063-.026.108-.043.161-.06-.098-.365-.098-.365-.259-.486zm-.83 1.214a1.1 1.1 0 00-.196.633c.294-.139.562.2.865.018-.072-.217-.152-.434-.223-.65h-.446zm-8.348.347c-.214.147-.5.2-.704.39v.14c.089.103.16.19.223.26.392-.018.544-.304.793-.512-.116-.105-.205-.191-.312-.278zm-13.306-.434c.018.026.027.061.045.087.205 0 .401.009.606 0 .179-.009.348.2.562.017a45.7 45.7 0 01-.428-.546c-.134.026-.205.148-.348.087a1.89 1.89 0 01-.437.355zm7.153-4.63c.027-.261-.009-.486-.214-.66-.071.009-.143-.026-.205.017v.946c.214-.035.294-.208.419-.304zm13.28 4.795v-1.015c-.063-.026-.071-.104-.178-.078-.152.347-.036.729-.072 1.093h.25zm-.321-3.122h.071v-1.691c.08-.026.125-.043.179-.06 0-.079.026-.148 0-.192-.08.061-.161.13-.25.2v1.743zm-.446 2.099v1.023h.152v-1.023h-.152zm-.392-1.925c-.116-.191-.072-.4-.072-.599-.009-.217 0-.434 0-.65.054-.096.214-.122.16-.295l-.258.113c.018.477-.027.954.027 1.44.062 0 .098 0 .143-.01zm.9 3.633c.027-.121-.062-.164-.133-.242-.09.043-.206-.052-.313.052.134.086.205.286.446.19zM20.124 21.17c0 .078-.053.165.027.251.054-.095.054-.173-.027-.251zm-4.762 2.28c.116.07.196.053.294 0-.107-.06-.187-.051-.294 0z" fill="#192351"/><path d="M24.823 14.04c-.116.009-.232-.035-.312.078-.045-.035-.071-.095-.196-.07-.027.035-.072.113-.116.183-.286-.096-.49.113-.776.052 0-.182-.16-.347-.098-.581h-.33a1.958 1.958 0 01-.063-.165c-.125-.052-.267-.017-.41-.087-.178-.095-.401-.104-.624-.104-.946.009-1.9.009-2.845.009-.018-.13-.08-.182-.188-.2.018-.043.036-.078.063-.138h-1.391a1.008 1.008 0 00-.205.641c-.099.061-.134.191-.268.217-.143.035-.223-.095-.348-.113 0-.147-.134-.216-.223-.294-.062-.061-.062-.122-.062-.191.17-.018.044-.165.116-.243a.786.786 0 01.116-.026c.07-.078.017-.19.035-.295a.762.762 0 00.357-.269v-.269h.366c.615-.633 1.097-1.335 1.667-1.968.598-.66 1.097-1.397 1.73-2.03h.545c.133.104.267.217.454.26.188.044.366.105.544.183.063.026.116.069.197.069.258 0 .526-.052.767.113.41.33.731.763 1.114 1.188.375-.052.776.147 1.204.087.241.112.509.086.767.086.099 0 .161.13.277.087-.009.052.009.104-.027.165-.214.373-.446.737-.606 1.136-.17.416-.402.815-.616 1.214-.214.4-.374.833-.624 1.214a.3.3 0 00.009.061z" fill="#F3A714"/><path d="M24.823 14.04c0-.026-.009-.06 0-.087.24-.39.401-.815.624-1.214.214-.399.446-.798.616-1.214.16-.399.392-.763.606-1.136.036-.06.018-.113.027-.165.098-.165.24-.295.285-.494.17.026.223-.148.357-.208.33-.148.669-.252 1.017-.347.223-.061.464-.07.669-.209.142-.095.32-.086.481-.112a6.08 6.08 0 00.812-.191 3.428 3.428 0 011.436-.156c.348.217.669.511.918.876.063.095.16.165.241.251.303.33.678.59.919.972.107.173.32.242.437.425.116.164.294.286.437.433.116.122.223.269.33.382.124.121.214.269.356.381.125.105.295.2.321.39.206.027.188.348.437.322v.303c-.535.156-1.088.087-1.658.234-.42.243-.82.607-1.374.763-.125-.112-.303-.19-.258-.407-.223-.33-.429-.65-.83-.833-.562-.26-1.097-.572-1.632-.876-.062-.034-.107-.104-.16-.156h-.357c-.214.226-.518.356-.723.599-.018.017-.089 0-.133 0-.09.008-.099-.052-.09-.113.054-.512-.089-1.006-.098-1.51-.089-.025-.17-.034-.25.018-.267.156-.561.295-.82.468-.392.252-.785.503-1.222.66-.178.667-.357 1.318-.535 1.968-.41-.017-.803-.017-1.186-.017zm-8.383-.78c0 .07-.009.13.062.19.09.087.215.148.223.296.116.026.205.147.348.112v1.171c.09.096.223 0 .34.07v.555c-.268.156-.5-.13-.741-.052-.08-.087-.125-.14-.143-.243-.053-.33-.25-.599-.57-.694-.152-.043-.313-.113-.491-.113-.339.009-.678.009-1.026 0-.116 0-.151.078-.232.13v.885c-.874.06-.98.087-1.337.32a.619.619 0 01-.116.452c-.295.139-.598.295-.937.45-.32 0-.874.113-1.141.27-.402.234-.687.537-.74.997-.018.113-.143.182-.099.312-.66-.052-1.248.156-1.783.52-.214.148-.455.27-.66.434-.428.347-.946.581-1.311.998-.125.138-.214.303-.348.416-.241.208-.41.494-.678.676a.557.557 0 00-.214.365c.062.078.134.06.178.043.107-.035.197-.104.321-.087.125.018.241-.06.357-.095.294-.087.589-.139.883-.226.562-.173 1.142-.33 1.721-.46.277-.06.553-.173.83-.26.027.226-.16.425-.072.668.214.165.375.4.518.633-.036.235-.312.104-.41.26-.384-.008-.74.157-1.124.2-.375.043-.75.026-1.124.07-.24.025-.49.086-.713.19-.794.364-1.588.737-2.382 1.11-.062.026-.107.087-.187.087-.704-.07-1.4.139-2.105.087-.08-.009-.178.034-.267-.052.062-.2.24-.339.365-.486.295-.356.571-.72.839-1.093.116-.165.294-.269.41-.442.09-.139.205-.278.339-.373.214-.156.41-.33.642-.468.384-.226.75-.486 1.115-.729.089-.06.187-.13.276-.19.197-.14.33-.321.402-.573.08-.295.24-.564.365-.85.259-.147.562-.217.803-.416.178-.148.41-.226.615-.33.357-.182.696-.399 1.035-.598.232-.139.5-.174.749-.226.232-.052.24-.026.517-.2v-.32c.179-.295.473-.382.714-.503.481-.243.883-.607 1.4-.798.24-.286.597-.416.9-.607.607-.382 1.196-.798 1.83-1.136.15-.078.275-.19.41-.286.463-.321.463-.321 1.034-.321.107.121.25.2.41.26z" fill="#192351"/><path d="M45.719 23.155c-.08-.182-.143-.338-.125-.512.018-.13 0-.26 0-.39.054-1.006-.151-1.995-.09-3-.16-.486-.061-.99-.088-1.484 0-.052-.027-.113.053-.182.223.07.34.278.509.425.178.156.339.321.49.477.116.234-.258.32-.143.555.437.19.892.39 1.32.633.09.052.16.122.232.191.384.364.758.729 1.133 1.101.152.148.33.278.517.356.303.113.464.356.607.598.303.52.642 1.015.98 1.51.08.112.143.234.197.338-.045.086-.125.086-.16.07-.206-.114-.429-.053-.634-.088-.285-.052-.589-.034-.865-.164-.062-.026-.143 0-.223-.01-.205-.008-.428.07-.606-.042-.17-.104-.393.052-.527-.13-.009-.018-.053-.01-.089 0-.428.06-.83-.14-1.257-.087-.17.026-.286-.122-.455-.096-.134.018-.277.044-.42-.06-.062-.052-.213-.009-.356-.009zM9.127 20.718c-.277.087-.544.19-.83.26-.58.13-1.16.278-1.721.46-.294.087-.589.139-.883.225-.116.035-.232.122-.357.096-.125-.018-.214.052-.32.086a.152.152 0 01-.18-.043.557.557 0 01.215-.364c.267-.182.437-.468.678-.677.133-.121.232-.277.348-.416.365-.416.882-.65 1.31-.997.206-.165.438-.286.66-.434.536-.364 1.115-.572 1.784-.52.054.225-.107.425-.098.65 0 .208-.107.417-.187.607-.125.287-.16.59-.321.868-.027.052-.098.112-.098.199zm16.856-6.678c.178-.65.357-1.3.535-1.969.437-.147.83-.399 1.222-.659.268-.173.553-.303.82-.468.09-.052.16-.044.25-.018.009.503.152.998.098 1.51-.009.06 0 .121.09.112a1.763 1.763 0 01-.26.434c-.115.113-.231.217-.33.347-.142.19-.374.338-.445.546-.072.208-.205.33-.339.486h-.482c-.062-.13-.223-.148-.356-.252-.125.026-.295-.06-.429.078-.098-.043-.214-.156-.374-.147z" fill="#F3A714"/><path d="M9.216 22.973c-.731.32-1.472.607-2.265.512-.107.13-.295.112-.34.312-.026.104-.276.095-.383.217-.107.121-.285.147-.419.156-.5.034-.999.008-1.49.008-.008-.06-.008-.095-.008-.12.419-.27.892-.409 1.338-.608.25-.113.526-.147.793-.226.295-.086.598-.086.901-.086.232 0 .49.07.696-.035.214-.104.446.009.66-.121.116-.07.339-.009.517-.009zm14.805-8.022c0 .07-.036.19.09.269l-.224.217c-.133-.009-.303.07-.392-.165v-.321c.17-.078.339-.243.526 0z" fill="#192351"/><path d="M9.171 22.991c.125-.156.214-.06.348-.113-.116.148-.214.078-.348.113zm13.431-1.874c-.071.06-.107.087-.143.121-.125.035-.178-.112-.312-.104-.009-.529.34-.806.785-1.023.053 0 .125.009.196 0 .366-.043.687.035.928.33.018.026.08.026.116.034.098.234.276.451.187.737-.098.157-.25.113-.401.105-.018-.044-.036-.096-.054-.148-.098 0-.044.07-.062.122-.098.06-.214.034-.33.026-.045-.14-.018-.33-.25-.339-.143 0-.187.061-.25.321-.187.104-.276-.06-.41-.182zM26 19.608c-.446-.06-.651-.416-.954-.624-.17-.113-.321-.26-.482-.4.464-.32.945-.606 1.57-.901.294-.07.65.121 1.026.234.294.087.58.19.91.217.285-.226.392-.668.838-.703.517.234.775.677 1.007 1.249 0 .33.08.763-.026 1.153-.107.382.07.79-.179 1.137-.178-.07-.33-.209-.535-.148a3.478 3.478 0 01-.196-.182H28.8c-.215.017-.455-.06-.652.043-.196.104-.446-.052-.615.13h-1.186c.053-.242-.178-.433-.16-.615.026-.27-.33-.339-.188-.59z" fill="#F3A714"/><path d="M24.734 19.504c0-.06-.027-.087-.09-.087-.062-.086-.115-.173-.178-.26.42.113.607.295.714.694-.062-.026-.116-.06-.178-.087 0-.06-.027-.087-.09-.087 0-.06-.026-.086-.089-.086 0-.06-.027-.087-.089-.087z" fill="#192351"/><path d="M24.467 19.157c-.071-.017-.17.043-.178-.087.071.018.17-.043.178.087zm.891.954c-.134-.009-.071-.104-.09-.173.135.008.072.112.09.173zm.09.174c-.134-.009-.071-.104-.09-.173.135.008.072.112.09.173zm.089.173c-.134-.009-.071-.104-.09-.173.135.008.072.112.09.173zm-.268-.52c-.062 0-.09-.026-.09-.087.063 0 .09.026.09.087zm-9.097 3.035c0-.087.071-.113.125-.156.062-.06.053-.121.053-.19.063 0 .09-.027.09-.088.124.035.205-.034.258-.121.277-.494.455-1.023.357-1.578a1.943 1.943 0 00-.446-.946c-.205-.234-.428-.46-.714-.615-.142-.079-.294-.165-.454-.183-.643-.069-1.285-.095-1.829.347a.279.279 0 01-.196.061c-.036-.121.036-.2.125-.251.57-.321 1.204-.451 1.846-.339.384.07.767.234 1.061.538.241.243.5.468.616.79.08.225.187.45.187.702 0 .173-.027.347.01.52.026.165-.161.278-.099.442-.232.443-.392.946-.99 1.067z" fill="#192351"/><path d="M13.229 19.851c.062 0 .09-.026.09-.087.044 0 .106.018.133 0 .24-.26.598-.338.919-.52.16 0 .356.017.544 0 .535-.052.999.165 1.337.503.366.364.643.815.643 1.379 0 .494-.107.92-.455 1.292-.018.026 0 .087 0 .13-.063 0-.09.026-.09.087-.25.087-.445.26-.677.373-.446.217-1.213.173-1.615.043-.187-.06-.294-.208-.428-.33h-.223c-.017-.069.045-.164-.089-.173-.089-.113-.08-.303-.267-.347 0-.07-.01-.13-.054-.19-.16-.235-.205-.53-.187-.781.027-.338.08-.702.276-1.006.045-.07.063-.121.054-.19.134-.018.071-.114.089-.183zm2.667 1.873c.017-.095.009-.156.044-.225a.68.68 0 00.027-.573c-.303-.624-.58-.875-1.23-.815-.036 0-.554.165-.598.174-.143.026-.134.225-.259.216-.098.313-.178.625-.107.928.071.304.196.608.517.764.286-.026.571.242.856 0 .357.017.518-.27.75-.469zm12.584-6.123c0-.06-.027-.087-.09-.087v-.33c0-.06.01-.112.09-.103.018.112-.027.225.027.338.116.009.232.043.33-.026v-.304c.08-.008.089.044.089.104v.33c-.071.017-.17-.043-.178.087-.09-.009-.179-.009-.268-.009z" fill="#192351"/><path d="M28.48 15.081c.116-.121.24-.121.357 0h-.357z" fill="#192351"/><path d="M15.896 21.724c-.232.2-.392.477-.75.468-.285.243-.57-.026-.855 0-.321-.165-.437-.468-.518-.763-.071-.295.01-.607.107-.928.125.009.116-.19.259-.217.045-.008.553-.165.598-.173.65-.07.936.182 1.23.815.08.165.08.39-.026.572-.036.07-.027.13-.045.226zm-.794-.538a.216.216 0 00-.223-.208.216.216 0 00-.223.208c-.009.139.107.243.25.226a.209.209 0 00.196-.226zm.116.495c.063-.01.098-.018.134-.026.036-.07.027-.122-.027-.157-.116-.008-.16.035-.107.183z" fill="#F3A714"/><path d="M15.102 21.186a.209.209 0 01-.196.226c-.143.017-.25-.087-.25-.226a.216.216 0 01.223-.208c.125 0 .214.087.223.208zm.116.495c-.053-.147-.009-.19.107-.182.053.043.053.087.027.156a1.23 1.23 0 01-.134.026zm-1.453 8.736v.656h-1.058c-.046-.194.007-.417-.03-.634-.07-.044-.147-.03-.223-.022a1.808 1.808 0 01-1.09-.313c-.413-.276-.72-.649-.843-1.17-.084-.359-.023-.702-.06-1.052.183-.455.283-.962.804-1.193.2-.276.53-.306.82-.418.177-.067.376-.007.591-.037v-.656h1.074v.67c.398-.059.736.075 1.073.217.292.12.53.306.706.567.122.194.306.365.33.611 0 .03.053.045.053.09 0 .395.069.812-.023 1.185-.107.463-.345.888-.813 1.156a2.41 2.41 0 01-1.311.343zm-.061-3.273V29.5c.046.037.084.074.115.097.1-.037.176-.105.283-.082.169.022.292-.075.422-.172.192-.149.268-.365.383-.551 0-.247-.007-.5 0-.746.008-.231-.1-.418-.237-.574-.246-.291-.575-.395-.966-.328zm-1.02-.008a1.425 1.425 0 00-.667.09c-.016.015-.054.06-.092.09-.368.275-.46.655-.46 1.08 0 .142.038.276.069.418.06.239.168.44.406.552.092.044.184.097.284.149.153.007.314-.03.467.06-.007-.813-.007-1.611-.007-2.439zm17.551 3.714h-1.05v-2.14h-2.07v2.133H26.04v-5.041h1.066V27.8h1.686c.1 0 .207-.03.276.075l.123-.12v-1.96h1.05c-.007 1.677-.007 3.355-.007 5.055zm3.213-3.08c.07-.142.192-.224.26-.35.123-.224.054-.388-.084-.545-.076-.097-.176-.179-.268-.268-.161 0-.33.007-.49 0a.653.653 0 00-.591.238c-.03.038-.077.068-.107.09.015.104.007.194-.115.26h-.936c-.023-.029-.1-.081-.092-.118.038-.202.046-.44.176-.597.292-.335.621-.626 1.12-.693.506-.067.636-.082 1.127 0 .153.022.314.03.46.09.414.163.775.387.882.864.061.276.084.552-.008.805-.015.045-.007.097-.015.15-.192.186-.338.44-.606.514-.015.134.07.104.115.134.3.142.49.388.621.671.008.008.023.015.023.03-.007.336.031.671-.1 1-.16.417-.52.588-.896.745-.46.194-.951.201-1.427.142-.521-.067-1.004-.276-1.342-.709a.555.555 0 01-.1-.186c-.045-.18-.137-.358-.114-.574.176-.03.368-.008.552-.015h.583v.253c.375.388.75.425 1.418.269a.987.987 0 00.353-.448c0-.067.023-.171-.016-.283a.758.758 0 00-.751-.537h-.76v-.82c.4-.015.79.037 1.128-.112zm5.375.932h-2.047v1.238l.115.112h2.323v.798h-3.481c-.054-.299-.077-3.885-.023-5.049h3.512v.798h-2.454c0 .231-.015.448 0 .671.015.202-.077.418.092.604h1.963v.828zm-22.137-2.915c.79 0 1.564-.022 2.339.007.39.015.774.157 1.073.448.192.186.368.38.483.664-.023.216.123.454.085.715-.023.172-.169.671-.276.783-.215.231-.445.44-.775.522-.307.082-.606.164-.935.15-.307-.015-.606 0-.928 0v1.774h-1.074c.008-1.678.008-3.348.008-5.063zm2.53 2.349l.138-.134c.246-.269.254-.59.154-.91-.07-.224-.506-.47-.782-.477-.315-.008-.637 0-.959 0v1.648c.476-.03.936.044 1.45-.127zm3.482 2.788h-.874v-.783c.038-.037.069-.067.107-.112.115-.007.2.157.338.052.084-.06.184-.097.291-.149.023-.052.046-.112.1-.164.176-.171.184-.365.076-.581-.299-.56-.605-1.119-.882-1.693-.153-.313-.345-.604-.483-.925-.107-.246-.268-.484-.33-.775H22.2c.375.73.736 1.506 1.096 2.282.2-.03.07-.254.207-.329.1-.454.337-.857.49-1.29.078-.216.254-.402.193-.663h1.219c.076.12-.138.201-.062.32-.122.112-.122.276-.191.41-.215.463-.407.933-.606 1.395-.13.29-.245.596-.414.88-.169.283-.2.641-.407.917.023.201-.16.306-.222.47-.077.186-.222.305-.353.455-.115.149-.306.171-.452.283zM7.032 25.496h.752c0 .216-.008.432 0 .656.007.202-.138.388-.077.597.061.223-.107.417-.07.663-.198.023-.398.008-.605.015v-1.931zm35.955 0h.76c-.024.328.007.641-.07.97-.069.298.054.626-.138.946h-.552v-1.916zm-1.61 1.924h-.606v-1.924h.76c-.039.299.068.597-.085.888.061.343-.107.67-.069 1.036zm1.227-1.917c-.03.201.054.395-.077.574-.015.022 0 .075 0 .112 0 .209.046.432-.015.626-.061.202-.054.396-.069.604h-.59v-1.916h.751zM5.874 27.42v-1.909h.767c-.038.194.07.388-.084.56-.016.014-.008.044 0 .074.046.425-.077.843-.092 1.275h-.59zm33.77-1.939c.238.06.506-.09.736.112-.038.149.061.306-.077.447-.023.03-.015.097-.007.142.053.417-.1.813-.085 1.23h-.575c-.046-.328-.046-1.633.008-1.931zm-30.388.007H9.9c.092.641-.038 1.275-.07 1.924h-.582c.008-.626.008-1.275.008-1.924zm-.568 1.939H8.09v-1.588c0-.082.023-.172-.084-.231.038-.03.077-.068.123-.105h.644c0 .313.053.634-.016.917-.076.328-.015.65-.069 1.007zm42.429-2.943h67.494v7.5H51.117v-7.5z" fill="#192351"/><path d="M119.08 23.86v8.008c0 .242.012.484-.155.69-.144.012-.299.07-.43-.034-.095-.08-.179-.046-.274-.057H77.762c-.227 0-.454-.035-.668.103-.084.058-.251.046-.347 0-.37-.195-.763-.103-1.145-.103-7.9-.012-15.79 0-23.69 0h-.597V23.86h67.765zm-15.873 6.984h1.659v-6.052h-1.779c-.083.242-.262.403-.381.61-.108.184-.239.357-.347.552-.107.207-.322.357-.465.564-.131.184-.155.426-.382.552-.191.115-.191.368-.334.53-.143.172-.286.333-.477.575v-3.383h-1.779v6.052h1.838c.322-.54.633-1.07.967-1.588.179-.276.251-.62.573-.805.119-.414.537-.656.668-1.059.048-.138.119-.115.239-.057v3.51zm10.824-2.508c-.023-.012-.059-.012-.083-.023v-3.544h-1.647v6.075h1.73c.132-.276.335-.494.502-.736.155-.242.346-.472.489-.725.143-.23.358-.437.466-.679.119-.264.286-.518.465-.725s.167-.552.513-.679v3.475c0 .012.012.035.024.046l.024.023h1.611c.072-2.117.048-5.603-.048-6.075h-1.647c-.823 1.185-1.611 2.382-2.399 3.567zm-42.952 1.013v-4.58h-1.623v6.098h4.547c.477.115.215.414.358.553h1.384v-2.026c-.226-.08-.477.035-.716-.068v-4.534h-1.79v4.568c-.716-.011-1.408-.011-2.16-.011zm-11.41 1.495v-4.59c.728.022 1.432-.024 2.148.022v4.568h1.743V24.78c-1.874-.069-5.204-.046-5.693.035v6.03h1.802zm36.4-2.393v2.393h1.742V24.77h-1.778v2.152h-2.16V24.77h-1.647v5.914l.143.138h1.54V28.44c.716.012 1.408.012 2.16.012zm13.247-.76c.776-.954 1.564-1.921 2.375-2.933h-2.017c-.62.816-1.253 1.668-1.933 2.565v-2.566h-.931c-.286.012-.585-.034-.847.023v6.076h.907c.286-.012.585.023.883-.023v-2.566c.346.472.644.874.931 1.289.298.437.585.874.847 1.288h2.113c.012-.034.023-.057.023-.069-.704-1.081-1.611-2.025-2.351-3.083zm-17.949-2.91h-1.945c-.478.437-.573 1.07-1.027 1.541-.43-.494-.56-1.104-1.002-1.565-.645.023-1.301-.023-1.97.023.573.978 1.301 1.807 1.922 2.75-.012.092.012.23-.048.311-.346.391-.608.84-.907 1.254-.406.564-.883 1.093-1.193 1.76h1.969c.346-.69.86-1.276 1.23-2.047.5.702.751 1.45 1.252 2.06h.943c.31 0 .62.01.931-.012-.012-.265-.083-.46-.239-.598-.202-.196-.334-.438-.489-.668-.418-.598-.835-1.208-1.289-1.76v-.438c.609-.897 1.17-1.726 1.862-2.612zm-6.564 6.063V29.36h-1.981v-.932h1.742v-1.392h-1.766c.024-.276-.024-.541.048-.806h1.98v-1.45h-3.782v6.064h3.759zm-20.134 0h3.795V29.36H66.46v-.932h1.755v-1.37h-.907c-.287 0-.585.024-.848-.01v-.795h1.898c.203-.495.071-1 .095-1.473h-3.795c.012 2.026.012 4.028.012 6.064zm-7.662-5.672a.906.906 0 00-.56-.403c-.395-.115-.813-.161-1.206-.242-.191-.034-.299.127-.49.127-.608 0-1.468.506-1.778.851-.227.254-.394.53-.573.806-.155.242-.179.575-.25.874-.072.288 0 .61-.024.92-.024.289.203.519.131.818-.024.103.096.184.131.287.048.185.191.346.299.518.37.622.954.944 1.647 1.15.489.15.966.07 1.444.104.298.023.549-.092.811-.207.155-.069.299-.126.43-.184v-1.68c-.501.334-.979.668-1.611.564-.525-.08-1.039-.219-1.23-.794-.083-.241-.214-.449-.238-.713-.048-.31.083-.587.167-.863.107-.368.334-.737.788-.852.095-.023.13-.08.19-.115H56.1c.203.092.358.15.49.23.154.092.274.219.44.357-.023-.54-.023-1.035-.023-1.553zm18.892-.403v1.484h.728c.227 0 .465-.023.704.035v4.556h1.456c.084-.069.143-.115.215-.172v-4.43h1.384v-1.484c-1.503.011-2.983.011-4.487.011z" fill="#F3A714"/><path d="M109.61 16.372v4.32h.69v2.395c-.25.16-.25.16-1.343.137l-.167-.16c.048-.172-.106-.39.107-.585-.142-.08-.107-.229-.107-.378h-3.327v1.1h-1.39c.012.012-.012 0-.024-.011-.012-.012-.024-.035-.024-.046V20.76c.071-.07.131-.16.19-.16a.83.83 0 00.725-.39c.167-.275.285-.573.285-.917-.011-.825 0-1.639 0-2.464v-.47c1.45.012 2.888.012 4.385.012zm-2.852 1.363v1.593c0 .344-.178.86-.38 1.112-.059.08-.143.137-.059.24h1.616v-2.945h-1.177zm-50.786 2.959V16.36h1.557c.09.115.034.276.034.425a157.1 157.1 0 010 3.22c0 .24-.012.482.159.7h.5v2.53H57.04a6.614 6.614 0 00-.148-.15v-.977h-4.317v-5.736h1.568v4.161l.159.161h1.67zm7.897-4.334h1.525v2h1.903v-1.99h1.514c.078.43.111 4.021.033 5.602H67.32v-2.225h-1.903v2.236H63.87V16.36z" fill="#192351"/><path d="M102.27 18.393V16.36h1.76v5.625h-1.747V19.77h-2.115l-.012.011c-.013.011-.026.034-.026.045v2.157h-1.747V16.37h1.735v2.022h2.152zM83.769 16.36h2.265a2359.46 2359.46 0 012.306 5.585c-.672.079-1.304.011-1.95.034-.197-.304-.224-.642-.355-.991h-2.042c-.435.18-.29.687-.593.98h-1.962c.355-.958.803-1.858 1.198-2.782.409-.923.751-1.869 1.133-2.826zm1.16 1.329c-.304.405-.357.743-.41 1.047-.052.338-.42.63-.263.98h1.304c-.092-.676-.355-1.295-.632-2.027zm6.241 2.53c-.237-.281-.43-.056-.655.034v1.732h-1.548v-5.612c.87 0 1.751-.034 2.62.01a2.05 2.05 0 011.029.35c.316.213.486.562.621.922.26.708.09 1.35-.361 1.89-.271.325-.667.584-1.152.55-.272-.022-.272 0-.554.124zm-.633-2.62c0 .224-.01.438-.01.663 0 .236-.035.472.022.697.203 0 .372.012.542 0 .079-.01.158-.078.237-.1.249-.08.44-.27.44-.507 0-.259-.067-.472-.327-.619-.282-.18-.576-.09-.904-.135zm-16.629-1.227c.94 0 1.856-.034 2.77.011.349.011.71.079 1.057.202.567.19.838.583 1.044 1.043.297.695.142 1.346-.4 1.884-.309.303-.721.55-1.236.56-.464.012-.941 0-1.43 0v1.874c-.31.056-.606.022-.89.033-.296.012-.593 0-.915 0v-5.607zm2.925 2.445c.413-.594.387-.718-.18-1.178h-.954v1.29c.4.1.748-.045 1.134-.112zm35.807-2.457v2.23c.991.046 2.007-.168 2.926.553.22.36.391.834.379 1.363-.012.507-.441 1.104-.955 1.24-.465.112-.918.259-1.432.236-.869-.022-1.738-.011-2.632-.011V16.36h1.714zm1.04 3.267h-1.04c0 .226-.012.428 0 .631.012.192-.049.406.037.586h1.126c.11-.135.343-.112.428-.281v-.541c-.147-.203-.355-.305-.551-.395zM93.987 16.36h3.765v1.333h-1.99v.779H97.6c.088.215.025.418.038.61.012.203 0 .406 0 .632h-1.876v.915h1.977v1.355h-3.752V16.36zm-35.137 0h3.765v1.333h-1.99v.779h1.71c.09.215.026.418.039.61.013.203 0 .406 0 .632h-1.75v.915h1.978v1.355H58.85V16.36zm13.321 5.625H70.68v-4.26h-1.163V16.53c.095-.191.264-.169.412-.169h3.352v1.341h-.973l-.147.158c.01 1.353.01 2.716.01 4.125z" fill="#192351"/><path d="M117.83 21.985h-1.882v-5.596c.275-.056.591-.01.907-.022.316-.011.632 0 .975 0v5.618z" fill="#192351"/></symbol><symbol id="whatsapp" viewBox="0 0 30 30"><path d="M.099 14.696C.099 12.098.17 9.5.08 6.903-.063 3.14 3.12.077 6.88.167c5.27.125 10.54.036 15.828.036 3.814 0 6.566 2.758 6.584 6.538.017 5.34 0 10.678 0 16.034 0 3.709-2.788 6.468-6.548 6.486-5.396 0-10.792.018-16.188 0-3.597 0-6.385-2.723-6.44-6.306-.035-2.76 0-5.518-.017-8.26.018 0 .018 0 0 0zm4.083 10.57c1.762-.448 3.345-.878 4.946-1.254.36-.09.792.017 1.187.107 1.241.305 2.465.86 3.706.95 6.061.447 11.044-4.193 11.17-10.266.143-6.843-6.224-11.931-12.897-10.3C5.873 6.06 2.473 13.19 5.35 19.12c.27.555.306 1.039.126 1.594-.432 1.433-.828 2.902-1.295 4.55z"/><path d="M6.7 22.56c1.223-1.934.504-3.654-.108-5.553-1.115-3.53-.072-6.682 2.806-9.047 2.644-2.168 5.72-2.562 8.832-1.165 3.327 1.487 5.072 4.192 5.09 7.847.036 6.503-6.871 10.642-12.609 7.614-.414-.215-1.007-.233-1.493-.161-.773.107-1.529.376-2.302.573l-.216-.107zm2.698-10.21c.108.466.144.95.36 1.361 1.475 2.885 3.67 4.999 6.889 5.84 1.025.27 2.032.108 2.842-.68.845-.842.72-1.684-.324-2.204-.234-.125-.504-.215-.72-.358-.737-.483-1.313-.448-1.762.394-.324.591-.828.717-1.331.305a43.4 43.4 0 01-2.752-2.365c-.45-.412-.486-.86.018-1.361.503-.502-.126-3.028-.774-3.333-.108-.053-.234-.035-.36-.035-1.133-.126-1.996.931-2.086 2.436z"/><path d="M4.182 25.266c.468-1.649.863-3.1 1.295-4.55.18-.574.144-1.04-.126-1.595-2.878-5.93.522-13.042 6.943-14.619 6.673-1.63 13.023 3.458 12.897 10.301-.126 6.073-5.109 10.695-11.17 10.265-1.26-.09-2.465-.644-3.706-.949-.377-.09-.809-.197-1.187-.107-1.583.358-3.165.788-4.946 1.254zM6.7 22.56c.072.036.162.072.234.108.773-.197 1.529-.466 2.302-.573.486-.072 1.08-.054 1.493.16 5.738 3.029 12.663-1.11 12.609-7.613-.018-3.655-1.78-6.36-5.09-7.847-3.112-1.397-6.188-1.003-8.832 1.165-2.878 2.365-3.921 5.517-2.806 9.047.576 1.899 1.313 3.619.09 5.553z" fill="#fff"/><path d="M9.398 12.349c.072-1.487.935-2.562 2.068-2.454.126.018.252 0 .36.035.666.305 1.295 2.831.774 3.333-.504.501-.486.95-.018 1.361a56.308 56.308 0 002.752 2.365c.503.412 1.025.287 1.33-.305.432-.842 1.026-.878 1.763-.394.216.144.486.251.72.358 1.043.52 1.187 1.38.324 2.204-.81.788-1.817.95-2.842.68-3.22-.841-5.396-2.955-6.89-5.84-.18-.393-.215-.895-.341-1.343z" fill="#fff"/></symbol><symbol id="viber" viewBox="0 0 30 30"><path d="M14.658 29.218c-2.734 0-5.45.018-8.184 0C2.912 29.2.106 26.406.106 22.841a2462.61 2462.61 0 010-16.303C.106 2.991 2.93.196 6.492.178 11.978.16 17.464.16 22.95.178c3.417.018 6.277 2.741 6.313 6.163.054 5.554.054 11.107 0 16.643-.036 3.493-2.824 6.18-6.331 6.234-2.77.036-5.522 0-8.274 0zm0-24.991v.09c-1.115 0-2.213-.018-3.328 0-2.968.053-5.792 2.329-6.151 5.267-.27 2.203-.252 4.46-.126 6.682.126 2.15 1.169 4.03 3.075 5.07 1.296.699 1.691 1.523 1.53 2.848-.037.269.233.735.485.824.252.09.701-.071.935-.268.522-.448 1.008-.95 1.421-1.487.414-.538.9-.699 1.547-.663 1.35.036 2.698.036 4.047 0 2.95-.09 5.702-2.33 6.08-5.25.27-2.149.198-4.335.198-6.502 0-3.064-2.123-5.769-5.163-6.342-1.474-.287-3.04-.197-4.55-.269z"/><path d="M10.359 24.489c0-1.129-.018-1.989.018-2.849.018-.483-.126-.734-.576-.95-2.248-1.056-3.363-2.866-3.363-5.338 0-1.845-.072-3.708.18-5.518.323-2.4 2.5-4.084 4.928-4.102a366.72 366.72 0 016.277 0c2.753.018 5.037 2.221 5.109 4.962a89.3 89.3 0 01-.036 5.805c-.09 2.364-2.357 4.55-4.767 4.64-1.313.035-2.644-.018-3.957.053-.414.018-.9.233-1.205.538-.845.806-1.619 1.72-2.608 2.759zm7.393-5.357c.053.054.125.108.18.143.467-.447.953-.895 1.402-1.343.63-.627.216-1.129-.323-1.451-.792-.484-1.385-1.648-2.608-.932-.018.018-.054.036-.054.072-.486.878-1.206.68-1.835.269a9.32 9.32 0 01-1.763-1.595c-.342-.412-.611-1.003-.665-1.523-.018-.286.467-.627.737-.95.036-.053.108-.107.09-.142-.18-.556-.27-1.183-.594-1.666-.36-.52-.611-1.344-1.475-1.237-1.097.144-1.87 1.487-1.492 2.509 1.42 3.654 3.957 6.18 7.608 7.613.27.108.54.162.791.233zM14.37 8.24c-.018.107-.036.215-.054.304.234.072.468.162.72.198 2.662.358 4.1 1.863 4.352 4.586.018.233.162.466.252.68.09-.035.162-.071.252-.089.162-1.792-.414-3.314-1.817-4.515-1.079-.931-2.32-1.325-3.705-1.164zm3.741 5.464c.666-.95.342-2.275-.54-3.135-.845-.842-2.158-1.2-3.057-.61 2.32.18 3.543 1.309 3.597 3.745zm-2.986-2.544c.972.305 1.601.914 1.745 1.97.126-.071.27-.143.396-.214-.162-.484-.234-1.021-.522-1.416-.341-.483-.9-.716-1.619-.34z"/><path d="M14.658 4.227c1.529.09 3.075 0 4.55.287 3.04.59 5.163 3.278 5.163 6.342 0 2.167.072 4.37-.198 6.503-.378 2.92-3.13 5.16-6.08 5.249a76.266 76.266 0 01-4.047 0c-.647-.018-1.133.143-1.547.663a9.289 9.289 0 01-1.42 1.487c-.235.197-.684.358-.936.268-.234-.09-.522-.555-.486-.824.162-1.343-.233-2.15-1.529-2.848-1.924-1.04-2.967-2.92-3.075-5.07-.126-2.222-.126-4.479.126-6.682.36-2.939 3.165-5.214 6.151-5.285 1.115-.018 2.213 0 3.328 0v-.09zm-4.3 20.262c.99-1.057 1.763-1.953 2.627-2.759a2.176 2.176 0 011.205-.538c1.313-.071 2.626 0 3.957-.053 2.41-.09 4.677-2.275 4.767-4.64.072-1.935.072-3.87.036-5.805-.072-2.759-2.339-4.944-5.109-4.962a366.515 366.515 0 00-6.277 0c-2.428.018-4.605 1.702-4.928 4.102-.252 1.81-.18 3.673-.18 5.518 0 2.455 1.115 4.282 3.363 5.339.468.215.594.466.576.95-.054.86-.036 1.72-.036 2.848z" fill="#fff"/><path d="M17.752 19.132c-.252-.072-.522-.125-.774-.233-3.651-1.433-6.187-3.977-7.608-7.614-.396-1.02.395-2.364 1.493-2.508.881-.107 1.133.699 1.475 1.236.323.466.413 1.093.593 1.667.018.035-.054.09-.09.143-.252.322-.755.645-.737.95.054.537.306 1.11.665 1.522a8.254 8.254 0 001.763 1.595c.611.412 1.331.609 1.835-.27.018-.017.036-.053.054-.07 1.223-.7 1.816.465 2.608.93.54.323.953.807.323 1.452-.45.466-.935.896-1.403 1.344-.072-.036-.126-.09-.197-.144zM14.37 8.24c1.385-.18 2.626.233 3.687 1.146 1.385 1.2 1.979 2.724 1.817 4.515-.09.036-.162.072-.252.09-.09-.233-.234-.448-.252-.681-.252-2.687-1.672-4.21-4.353-4.55-.233-.036-.485-.126-.719-.198.036-.107.054-.215.072-.322z" fill="#fff"/><path d="M18.111 13.704c-.036-2.436-1.277-3.565-3.597-3.744.881-.61 2.212-.233 3.058.609.863.86 1.205 2.185.54 3.135z" fill="#fff"/><path d="M15.125 11.16c.72-.376 1.277-.143 1.62.34.287.395.359.95.52 1.416-.125.071-.269.143-.395.215-.144-1.075-.773-1.666-1.745-1.97z" fill="#fff"/></symbol><symbol id="telegram" viewBox="0 0 30 30"><path d="M14.742 27.337c-6.997 0-12.699-5.66-12.717-12.612C2.007 7.756 7.817 1.988 14.796 2.06c7.015.072 12.573 5.644 12.59 12.613.019 7.004-5.647 12.683-12.644 12.665zm2.914-15.066c.054.09.126.179.18.269-.252.304-.486.645-.774.931-1.385 1.326-2.77 2.634-4.155 3.942-.431.412-.755.931-.18 1.361 1.8 1.272 3.598 2.562 5.505 3.673 1.007.59 1.708.071 1.888-1.093l.486-3.171c.413-2.741.827-5.464 1.223-8.205.144-.968-.306-1.326-1.26-1.04a5.393 5.393 0 00-.755.27 1690.719 1690.719 0 00-10.072 4.21c-1.313.555-2.644 1.11-3.94 1.701-.233.108-.45.377-.539.627-.036.108.198.448.36.502 1.079.34 2.158.752 3.255.914.576.09 1.313-.162 1.817-.484 1.997-1.254 3.921-2.616 5.9-3.923.306-.198.701-.323 1.061-.484z" fill="#fff"/><path d="M14.742 29.236c-2.734 0-5.45.018-8.184 0C2.96 29.218.173 26.477.137 22.894.1 17.43.1 11.966.137 6.502.155 2.937 2.96.196 6.557.178 12.045.16 17.53.16 23.017.178c3.436.018 6.277 2.867 6.295 6.288v16.661c0 3.117-2.895 6.056-6.025 6.091-2.86.036-5.702 0-8.544.018 0-.018 0 0 0 0zm0-1.899c6.997 0 12.663-5.66 12.645-12.648C27.369 7.72 21.81 2.15 14.796 2.077c-6.979-.071-12.789 5.68-12.77 12.666.017 6.951 5.701 12.594 12.716 12.594z"/><path d="M17.656 12.271c-.36.161-.737.287-1.061.502-1.96 1.308-3.903 2.651-5.9 3.923-.522.322-1.241.555-1.817.484-1.115-.162-2.194-.573-3.255-.914-.162-.054-.414-.394-.36-.501.09-.251.306-.52.54-.628 1.295-.59 2.626-1.146 3.939-1.702 3.363-1.415 6.709-2.812 10.072-4.21.252-.107.504-.197.756-.268.953-.287 1.403.071 1.259 1.039-.396 2.74-.81 5.464-1.223 8.205l-.486 3.17c-.18 1.165-.881 1.685-1.889 1.094-1.906-1.111-3.705-2.401-5.504-3.673-.575-.412-.27-.932.18-1.361 1.385-1.308 2.788-2.616 4.155-3.942.288-.286.522-.609.774-.931-.054-.108-.126-.197-.18-.287z"/></symbol><symbol id="instagram" viewBox="0 0 30 30"><path d="M14.723 3.367c2.014 0 4.01-.036 6.025 0 2.878.054 5.27 2.49 5.288 5.374.018 3.942.018 7.883 0 11.806-.017 2.885-2.392 5.339-5.288 5.375a462.18 462.18 0 01-12.123 0c-2.842-.036-5.198-2.347-5.252-5.195a457.056 457.056 0 010-12.165c.036-2.884 2.428-5.16 5.342-5.195 1.997-.036 3.993-.018 6.008 0zm9.749 11.286V9.19c-.018-2.705-1.637-4.317-4.371-4.335-3.651-.018-7.303-.018-10.954 0-2.608.018-4.3 1.738-4.3 4.335v11c0 2.436 1.692 4.21 4.138 4.246 3.777.036 7.554.036 11.314 0 2.554-.018 4.173-1.684 4.19-4.246-.017-1.845-.017-3.69-.017-5.536z" fill="#fff"/><path d="M14.669 8.4c3.417 0 6.313 2.867 6.295 6.271-.018 3.386-2.842 6.217-6.223 6.235-3.454.017-6.314-2.795-6.314-6.217-.036-3.44 2.788-6.288 6.242-6.288zm-.019 10.93c2.662 0 4.73-2.042 4.73-4.676 0-2.651-2.086-4.694-4.82-4.676-2.554.018-4.623 2.114-4.587 4.712a4.643 4.643 0 004.677 4.64zm7.97-10.947c0 .645-.559 1.218-1.17 1.218-.666 0-1.205-.59-1.187-1.29.018-.662.557-1.2 1.205-1.164.665.054 1.169.573 1.151 1.236z" fill="#fff"/><path d="M29.184 14.636c0 2.651.018 5.32 0 7.972-.036 3.619-2.77 6.467-6.385 6.503a808.82 808.82 0 01-16.188 0c-3.652-.036-6.44-2.884-6.458-6.54-.036-5.284-.036-10.569 0-15.836C.171 3.027 3.05.196 6.773.178 12.043.16 17.313.16 22.6.178c3.76.018 6.565 2.83 6.583 6.593v7.865zM14.723 3.367c-2.015 0-4.011-.036-6.026 0-2.914.054-5.288 2.329-5.342 5.195a457.055 457.055 0 000 12.165c.036 2.848 2.41 5.16 5.252 5.195 4.047.036 8.094.036 12.123 0 2.896-.036 5.27-2.49 5.289-5.375.018-3.94.018-7.882 0-11.805C26 5.857 23.626 3.42 20.73 3.367c-1.996-.036-4.01 0-6.007 0z"/><path d="M24.472 14.654c0 1.845.018 3.69 0 5.553-.018 2.544-1.62 4.21-4.191 4.246a595.92 595.92 0 01-11.314 0c-2.446-.018-4.137-1.81-4.137-4.246v-11c0-2.597 1.69-4.335 4.299-4.335 3.651-.018 7.303-.018 10.954 0 2.734.018 4.353 1.63 4.37 4.335.019 1.81.019 3.62.019 5.447zM14.669 8.4c-3.436 0-6.278 2.849-6.26 6.289.018 3.421 2.878 6.252 6.314 6.216 3.381-.018 6.223-2.848 6.223-6.234.018-3.404-2.86-6.289-6.277-6.27zm7.95-.018c0-.662-.486-1.2-1.151-1.218-.648-.036-1.187.502-1.205 1.165-.018.698.521 1.29 1.187 1.29.63-.018 1.169-.574 1.169-1.237z"/><path d="M14.65 19.33c-2.59 0-4.658-2.043-4.676-4.623-.018-2.597 2.033-4.693 4.587-4.711 2.716-.018 4.82 2.006 4.82 4.675 0 2.598-2.068 4.64-4.73 4.658z"/></symbol><symbol id="backdrop" viewBox="0 0 1069 697"><path d="M833.743 577.57c-68.649 127.449-223.308 119.326-223.308 119.326H.008V-147H1068.28S902.391 450.121 833.743 577.57z" fill-opacity=".9"/></symbol><symbol id="arrow" viewBox="0 0 6 10"><path d="M5.749 4.857a.308.308 0 00-.09-.205L1.5.492a.308.308 0 00-.206-.09.308.308 0 00-.205.09L.64.937a.308.308 0 00-.089.205c0 .071.036.152.09.205l3.508 3.51L.641 8.365a.308.308 0 00-.089.205c0 .08.036.152.09.206l.446.446c.053.054.134.09.205.09a.308.308 0 00.206-.09l4.16-4.16a.308.308 0 00.09-.206z" fill="#4B6EE5"/></symbol></svg>